# xmcd CD database file
#
# Track frame offsets:
#	150
#	18878
#	40185
#	58143
#	79018
#	95240
#	118300
#	137278
#	157383
#	179663
#
# Disc length: 2722 seconds
#
# Revision: 0
# Processed by: cddbd v1.5.1PL0 Copyright (c) Steve Scherf et al.
# Submitted via: CDex 1.51
#
DISCID=8b0aa00a
DTITLE=ICE BOX BABY - ICE BOX BABY 二人の夏曜日
DYEAR=1997
DGENRE=JPop
TTITLE0=We are I.B.B.
TTITLE1=冷たくしないで
TTITLE2=Summer Kiss
TTITLE3=恋とエステと英会話
TTITLE4=HUTOCCHO MAMA
TTITLE5=二人だけの神話
TTITLE6=Rainy News〜うちに帰ろう〜
TTITLE7=恋はア・ラ･カルト
TTITLE8=8月のMerry X'mas
TTITLE9=冷たいキス(Baby Version)
EXTD=YEAR: 1997
EXTT0=
EXTT1=
EXTT2=
EXTT3=
EXTT4=
EXTT5=
EXTT6=
EXTT7=
EXTT8=
EXTT9=
PLAYORDER=
